<svg width="36" height="36" viewBox="0 0 36 36" fill="none" xmlns="http://www.w3.org/2000/svg">
<path d="M34.5834 25.02C33.6378 27.21 32.355 29.115 30.735 30.735C29.115 32.355 27.21 33.6378 25.02 34.5834C22.83 35.529 20.49 36.0012 18 36C15.72 36 13.5522 35.595 11.4966 34.785C9.441 33.975 7.611 32.8578 6.0066 31.4334C4.4022 30.009 3.09 28.329 2.07 26.3934C1.05 24.4578 0.405 22.35 0.135 20.07C0.0750001 19.5 0.21 19.0578 0.54 18.7434C0.87 18.429 1.26 18.2412 1.71 18.18C2.16 18.1188 2.595 18.2166 3.015 18.4734C3.435 18.7302 3.675 19.1724 3.735 19.8C4.185 23.43 5.7678 26.445 8.4834 28.845C11.199 31.245 14.3712 32.445 18 32.445C22.02 32.445 25.425 31.05 28.215 28.26C31.005 25.47 32.4 22.065 32.4 18.045C32.4 14.025 31.005 10.62 28.215 7.83C25.425 5.04 22.02 3.645 18 3.645C15.33 3.645 12.9072 4.2978 10.7316 5.6034C8.556 6.909 6.8388 8.6412 5.58 10.8H9C9.51 10.8 9.9378 10.9728 10.2834 11.3184C10.629 11.664 10.8012 12.0912 10.8 12.6C10.7988 13.1088 10.626 13.5366 10.2816 13.8834C9.9372 14.2302 9.51 14.4024 9 14.4H1.8C1.29 14.4 0.8628 14.2272 0.5184 13.8816C0.174 13.536 0.0012 13.1088 0 12.6V5.4C0 4.89 0.1728 4.4628 0.5184 4.1184C0.864 3.774 1.2912 3.6012 1.8 3.6C2.3088 3.5988 2.7366 3.7716 3.0834 4.1184C3.4302 4.4652 3.6024 4.8924 3.6 5.4V7.2C5.25 5.01 7.32 3.2628 9.81 1.9584C12.3 0.654 15.03 0.0012 18 0C20.49 0 22.83 0.4728 25.02 1.4184C27.21 2.364 29.115 3.6462 30.735 5.265C32.355 6.8838 33.6378 8.7888 34.5834 10.98C35.529 13.1712 36.0012 15.5112 36 18C35.9988 20.4888 35.5278 22.8288 34.5834 25.02ZM14.4 25.2C13.89 25.2 13.4628 25.0272 13.1184 24.6816C12.774 24.336 12.6012 23.9088 12.6 23.4V18C12.6 17.49 12.7728 17.0628 13.1184 16.7184C13.464 16.374 13.8912 16.2012 14.4 16.2V14.4C14.4 13.41 14.7528 12.5628 15.4584 11.8584C16.164 11.154 17.0112 10.8012 18 10.8C18.9888 10.7988 19.8366 11.1516 20.5434 11.8584C21.2502 12.5652 21.6024 13.4124 21.6 14.4V16.2C22.11 16.2 22.5378 16.3728 22.8834 16.7184C23.229 17.064 23.4012 17.4912 23.4 18V23.4C23.4 23.91 23.2272 24.3378 22.8816 24.6834C22.536 25.029 22.1088 25.2012 21.6 25.2H14.4ZM16.2 16.2H19.8V14.4C19.8 13.89 19.6272 13.4628 19.2816 13.1184C18.936 12.774 18.5088 12.6012 18 12.6C17.4912 12.5988 17.064 12.7716 16.7184 13.1184C16.3728 13.4652 16.2 13.8924 16.2 14.4V16.2Z" fill="#E62727"/>
</svg>
